<?xml version="1.0" encoding="UTF-8"?><svg id="Layer_2" xmlns="http://www.w3.org/2000/svg" viewBox="0 0 257.56 163.35"><defs><style>.cls-1{fill:#ebf5fa;}.cls-2{fill:#c6ff00;}.cls-3{fill:#181a1b;}</style></defs><g id="Layer_1-2"><path class="cls-2" d="M125.59,95.07c-.34,9.92-8.93,17.97-18.8,17.61-10.71-.38-18.78-8.93-18.36-19.53.35-8.88,6.97-18.45,19.69-17.86,10.1.48,17.87,9.19,17.47,19.78Z"/><path class="cls-2" d="M169.12,94.92c-.3,9.82-8.94,18.01-18.7,17.74-10.94.11-18.89-9.59-18.46-19.4.48-10.49,8.72-18.23,19.39-17.97,10.19.27,18.08,8.98,17.77,19.63Z"/><path class="cls-2" d="M257.56,9.5c0-3.07-1.5-5.93-4.02-7.69-4.16-2.89-8.67-2.24-20.99,1.37-6.51,1.91-15.25,4.75-26,8.44-15.17,5.21-30.2,10.71-34.85,12.42-.97,0-1.94.04-2.87.09-5.28.25-10.57.95-15.7,2.08-8.75,1.93-17.12,5.17-24.51,9.46-7.27-4.17-15.46-7.32-24.01-9.23-5.2-1.15-10.54-1.86-15.86-2.11-.95-.04-1.93-.08-2.9-.09-4.59-1.65-19.74-7.1-35.02-12.27-10.76-3.65-19.49-6.45-25.97-8.35C12.35-.04,8.09-.68,3.99,2.17,1.51,3.9.02,6.74,0,9.81c0,3.61,0,3.75,17.36,30.19,6.76,10.28,14.99,22.8,22.11,34.13-1.97,5.51-2.94,12.05-2.94,19.87,0,17.75,5.09,32.05,15.11,42.55-.48,6.23.23,12.73,4.79,18.03,5.22,6.08,13.78,8.78,27.72,8.78,11.05,0,21.71-1.86,31.72-5.53,4.62-1.68,9-3.74,13.09-6.12,4.15,2.39,8.58,4.43,13.23,6.1,9.83,3.54,20.32,5.35,31.2,5.35,13.45,0,22.25-2.8,27.72-8.84,4.98-5.51,5.94-12.44,5.76-18.66,9.53-10.43,14.38-24.43,14.38-41.66,0-7.89-1-14.5-3.03-20.03,6.94-11.13,15.12-23.61,21.84-33.87,17.51-26.75,17.51-26.97,17.51-30.58ZM195.53,92.92c0,.92-.02,1.84-.09,2.74-.19,2.81-.65,5.56-1.41,8.19-4.75,16.98-20.34,29.44-38.86,29.44-10.05,0-19.26-3.68-26.32-9.76-7.09,6.17-16.37,9.91-26.5,9.91-16.89,0-31.36-10.38-37.38-25.13-1.74-4.24-2.76-8.83-2.93-13.64-.03-.53-.04-1.06-.04-1.59,0-7.59,2.11-14.69,5.74-20.76l-4.34-9.5-6.34-13.87c-.68-1.18.17-2.63,1.54-2.62l25.39,3.69,16.11,2.34,2.27.33h0c10.05,0,19.26,3.68,26.32,9.77,7.09-6.17,16.37-9.91,26.5-9.91h0s2.42-.34,2.42-.34l15.96-2.27,25.41-3.61c1.34-.02,2.19,1.44,1.54,2.62l-6.39,13.85-4.32,9.37c3.65,6.07,5.74,13.17,5.74,20.76Z"/><path class="cls-3" d="M108.12,75.29c-12.72-.59-19.34,8.98-19.69,17.86-.42,10.6,7.65,19.15,18.36,19.53,9.87.36,18.45-7.69,18.8-17.61.4-10.59-7.37-19.3-17.47-19.78ZM101.36,94.92c-2.61-.11-4.62-2.31-4.54-4.95.09-2.83,2.28-4.98,4.98-4.92,2.68.06,4.98,2.45,4.87,5.05-.12,2.72-2.54,4.92-5.3,4.82Z"/><path class="cls-3" d="M151.35,75.29c-10.67-.27-18.91,7.48-19.39,17.97-.43,9.81,7.52,19.51,18.46,19.4,9.76.27,18.4-7.92,18.7-17.74.31-10.65-7.58-19.35-17.77-19.63ZM144.92,94.84c-2.7,0-4.82-2.09-4.85-4.8-.02-2.77,2.09-4.96,4.85-5,2.63-.04,4.99,2.26,5.06,4.88.04,2.47-2.47,4.92-5.06,4.92Z"/><path class="cls-3" d="M248.52,9.5c0-4.29-75.13,23.54-75.13,23.54h0c-1.4,0-2.78.04-4.15.11-4.88.23-9.61.87-14.17,1.88-9.91,2.17-18.91,6.09-26.44,11.3-7.43-5.09-16.29-8.91-25.99-11.06-4.61-1.03-9.42-1.69-14.35-1.92-1.37-.06-2.75-.1-4.14-.1v-.03S9.06,5.98,9.04,9.8c0,1.95,24.02,36.83,40.61,63.57-2.65,4.87-4.09,11.54-4.09,20.62,0,18.13,5.77,30.64,15.56,39.12-1.97,13.12-.05,21.19,23.02,21.19,10.22,0,19.91-1.79,28.61-4.98,5.89-2.16,11.35-4.96,16.19-8.31,4.87,3.34,10.35,6.13,16.3,8.26,8.58,3.1,18.11,4.82,28.15,4.82,22.67,0,25.51-8.59,24.18-21.93,9.23-8.47,14.64-20.7,14.64-38.18,0-9.14-1.48-15.84-4.22-20.72,16.17-26.27,40.53-61.66,40.53-63.77ZM200.51,48.95l-6.39,13.85-4.32,9.37c3.65,6.07,5.74,13.17,5.74,20.76,0,.92-.02,1.84-.09,2.74-.19,2.81-.65,5.56-1.41,8.19-4.75,16.98-20.34,29.44-38.86,29.44-10.05,0-19.26-3.68-26.32-9.76-7.09,6.17-16.37,9.91-26.5,9.91-16.89,0-31.36-10.38-37.38-25.13-1.74-4.24-2.76-8.83-2.93-13.64-.03-.53-.04-1.06-.04-1.59,0-7.59,2.11-14.69,5.74-20.76l-4.34-9.5-6.34-13.87c-.68-1.18.17-2.63,1.54-2.62l25.39,3.69,16.11,2.34,2.27.33h0c10.05,0,19.26,3.68,26.32,9.77,7.09-6.17,16.37-9.91,26.5-9.91h0s2.42-.34,2.42-.34l15.96-2.27,25.41-3.61c1.34-.02,2.19,1.44,1.54,2.62Z"/><path class="cls-1" d="M200.51,49.46c.66-1.18-.19-2.63-1.54-2.62l-25.42,3.61-15.96,2.27-2.42.34h0c-10.14.01-19.42,3.75-26.5,9.92-7.06-6.09-16.27-9.76-26.32-9.76h0s-2.27-.34-2.27-.34l-16.1-2.34-25.39-3.7c-1.37-.01-2.22,1.45-1.54,2.62l6.35,13.87,4.34,9.49c-3.63,6.07-5.74,13.17-5.74,20.76,0,.53.02,1.06.05,1.59.18,4.81,1.2,9.4,2.94,13.64,6.01,14.75,20.49,25.13,37.37,25.13,10.14,0,19.42-3.74,26.5-9.91,7.06,6.09,16.27,9.76,26.32,9.76,18.51,0,34.1-12.45,38.85-29.44.76-2.63,1.22-5.38,1.41-8.19.07-.9.09-1.82.09-2.74,0-7.59-2.09-14.69-5.74-20.76l4.33-9.37,6.39-13.84ZM106.8,113.19c-10.71-.38-18.78-8.93-18.36-19.53.35-8.88,6.97-18.46,19.69-17.86,10.1.47,17.87,9.19,17.47,19.78-.35,9.92-8.93,17.97-18.79,17.61ZM150.42,113.17c-10.94.11-18.9-9.59-18.46-19.4.47-10.49,8.71-18.23,19.38-17.96,10.19.27,18.08,8.97,17.78,19.62-.31,9.82-8.95,18.01-18.7,17.74Z"/><path class="cls-1" d="M106.66,90.1c-.12,2.72-2.54,4.93-5.3,4.83-2.61-.1-4.62-2.31-4.54-4.95.09-2.83,2.28-4.98,4.97-4.92,2.68.06,4.98,2.44,4.87,5.04Z"/><path class="cls-1" d="M149.98,89.92c.05,2.46-2.48,4.92-5.06,4.92-2.7.01-4.83-2.08-4.85-4.79-.02-2.78,2.09-4.96,4.85-5.01,2.63-.03,5,2.26,5.06,4.88Z"/></g></svg>